<svg width="132" height="132" viewBox="0 0 132 132" fill="none" xmlns="http://www.w3.org/2000/svg">
<circle cx="66" cy="66" r="59" fill="white"/>
<path d="M62.1734 111.495C65.2506 108.416 65.2506 103.428 62.1734 100.35C59.0961 97.2716 54.1062 97.2716 51.0304 100.35C47.9517 103.428 47.9517 108.416 51.0304 111.495C54.1062 114.572 59.0961 114.572 62.1734 111.495Z" fill="#244DCB"/>
<mask id="mask0_3_25" style="mask-type:luminance" maskUnits="userSpaceOnUse" x="6" y="6" width="120" height="120">
<path d="M6.28513 6.28513H125.613V125.613H6.28513V6.28513Z" fill="white"/>
</mask>
<g mask="url(#mask0_3_25)">
<path d="M65.9988 6.28119C33.0181 6.28119 6.28119 33.0181 6.28119 65.9988C6.28119 67.4494 6.33619 68.8877 6.43794 70.3122C21.0088 56.3174 43.6509 55.6478 58.9863 68.3184L76.9906 50.3142C74.3822 45.8977 74.9762 40.1144 78.7698 36.3194C83.2674 31.8232 90.5591 31.8232 95.0553 36.3194C99.5529 40.8184 99.5529 48.1087 95.0553 52.6049C91.2617 56.3999 85.4771 56.9939 81.0619 54.3856L63.1512 72.2949C76.8709 87.4241 76.7898 110.6 62.9257 125.639C63.9418 125.692 64.9676 125.718 65.9988 125.718C98.9809 125.718 125.718 98.9809 125.718 65.9988C125.718 33.0181 98.9809 6.28119 65.9988 6.28119Z" fill="#244DCB"/>
</g>
<path d="M21.1777 70.4976C18.0991 73.5749 18.0991 78.5648 21.1777 81.642C24.255 84.7193 29.2435 84.7193 32.3207 81.642C35.3994 78.5648 35.3994 73.5749 32.3207 70.4976C29.2435 67.4204 24.255 67.4204 21.1777 70.4976Z" fill="#244DCB"/>
</svg>